<svg xmlns="http://www.w3.org/2000/svg" viewBox="0 0 500 500"><!--Typing--><g id="freepik--background-simple--inject-1--inject-2"><path d="M422.41,180c2.27-23.46,7.7-45.67-1.9-68.23C402.89,70.37,349.74,48.39,308.44,68,287.32,78,269.26,92.63,246,98,183.22,112.49,86.32,35.29,52.15,125.17c-11.73,30.84-7,71.48,14.21,97.26,6.81,8.27,15.13,15.47,20.17,24.93C100.32,273.25,80.8,301.7,72,325.85c-20.9,57.07,57.9,88.65,100.67,94.47C243.37,430,301.69,349,372,382c49,23,92-33,83-89-5.89-36.66-35.71-71.75-32.92-109.11C422.18,182.6,422.29,181.31,422.41,180Z" style="fill:#7E57C2"></path><path d="M422.41,180c2.27-23.46,7.7-45.67-1.9-68.23C402.89,70.37,349.74,48.39,308.44,68,287.32,78,269.26,92.63,246,98,183.22,112.49,86.32,35.29,52.15,125.17c-11.73,30.84-7,71.48,14.21,97.26,6.81,8.27,15.13,15.47,20.17,24.93C100.32,273.25,80.8,301.7,72,325.85c-20.9,57.07,57.9,88.65,100.67,94.47C243.37,430,301.69,349,372,382c49,23,92-33,83-89-5.89-36.66-35.71-71.75-32.92-109.11C422.18,182.6,422.29,181.31,422.41,180Z" style="fill:#fff;opacity:0.7000000000000001"></path></g><g id="freepik--Plant--inject-1--inject-2"><circle cx="85.77" cy="160.73" r="34.53" style="fill:#fff;stroke:#2e353a;stroke-linecap:round;stroke-linejoin:round"></circle><circle cx="83.2" cy="157.3" r="34.53" style="fill:#fff;stroke:#2e353a;stroke-linecap:round;stroke-linejoin:round"></circle><circle cx="83.2" cy="157.3" r="31.1" style="fill:#2e353a;stroke:#2e353a;stroke-linecap:round;stroke-linejoin:round"></circle><path d="M79.55,133.92s-3.43-8.58-9.43-14.58-30.46-9.87-30.46-9.87a89.68,89.68,0,0,1,10.73,12.44c5.57,7.72,24,25.31,24,25.31s-9-7.72-17.16-8.58-28.74,3.43-30,3.43,7.72,3.43,14.16,6.43,31.31,5.58,31.31,5.58-10.72,3-18,5.58S40.52,181.1,40.52,181.1s9.44-8.58,17.59-10.72,19.73-6,19.73-6-7.29,8.15-9,13.73-.43,18.44-.43,18.44,3.86-12,8.58-16.73S86.84,167,86.84,167a118,118,0,0,1,6.44,12c3.43,7.29,5.57,18,5.57,18s5.58-12,5.15-18-6.86-16.73-6.86-16.73,4.29-3,10.72-.43,17.59,13.3,17.59,13.3-2.58-14.16-6.87-19.73-22.73-7.3-22.73-7.3,10.3-6,16.73-7.29,15,1.72,15,1.72-9.86-13.73-17.58-14.59S90.7,139.07,90.7,139.07l3.44-17.16c.85-4.29-.86-15-.86-15s-4.72,2.57-10.3,10.72A21.36,21.36,0,0,0,79.55,133.92Z" style="fill:#7E57C2"></path><path d="M79.55,133.92s-3.43-8.58-9.43-14.58-30.46-9.87-30.46-9.87a89.68,89.68,0,0,1,10.73,12.44c5.57,7.72,24,25.31,24,25.31s-9-7.72-17.16-8.58-28.74,3.43-30,3.43,7.72,3.43,14.16,6.43,31.31,5.58,31.31,5.58-10.72,3-18,5.58S40.52,181.1,40.52,181.1s9.44-8.58,17.59-10.72,19.73-6,19.73-6-7.29,8.15-9,13.73-.43,18.44-.43,18.44,3.86-12,8.58-16.73S86.84,167,86.84,167a118,118,0,0,1,6.44,12c3.43,7.29,5.57,18,5.57,18s5.58-12,5.15-18-6.86-16.73-6.86-16.73,4.29-3,10.72-.43,17.59,13.3,17.59,13.3-2.58-14.16-6.87-19.73-22.73-7.3-22.73-7.3,10.3-6,16.73-7.29,15,1.72,15,1.72-9.86-13.73-17.58-14.59S90.7,139.07,90.7,139.07l3.44-17.16c.85-4.29-.86-15-.86-15s-4.72,2.57-10.3,10.72A21.36,21.36,0,0,0,79.55,133.92Z" style="opacity:0.5"></path><path d="M88,120.86c.3-1.23.63-2.46,1-3.67" style="fill:none;stroke:#2e353a;stroke-linecap:round;stroke-linejoin:round;stroke-width:0.5px"></path><path d="M59.35,120.86c4,2.93,9,7,11.62,10.49,4.72,6.43,14.16,20.16,14.16,20.16A127.55,127.55,0,0,1,87.31,124" style="fill:none;stroke:#2e353a;stroke-linecap:round;stroke-linejoin:round;stroke-width:0.5px"></path><path d="M53.39,116.76s1.25.8,3.12,2.09" style="fill:none;stroke:#2e353a;stroke-linecap:round;stroke-linejoin:round;stroke-width:0.5px"></path><path d="M85.13,151.51s16.3-16.3,23.16-17.59,12.87,3.86,12.87,3.86" style="fill:none;stroke:#2e353a;stroke-linecap:round;stroke-linejoin:round;stroke-width:0.5px"></path><path d="M56,165.14c-4,2.52-4.33,4-4.33,4" style="fill:none;stroke:#2e353a;stroke-linecap:round;stroke-linejoin:round;stroke-width:0.5px"></path><path d="M120.73,166.52s-2.57-6.44-11.58-9.44S86,153.65,86,153.65s-19.85,6.5-27.11,9.89" style="fill:none;stroke:#2e353a;stroke-linecap:round;stroke-linejoin:round;stroke-width:0.5px"></path><path d="M77.32,151.2c4.8,1.4,8.67,2.45,8.67,2.45" style="fill:none;stroke:#2e353a;stroke-linecap:round;stroke-linejoin:round;stroke-width:0.5px"></path><path d="M47.11,143.58c4.66.28,10.66.92,14,2.35,2.72,1.17,8.08,2.86,13.14,4.37" style="fill:none;stroke:#2e353a;stroke-linecap:round;stroke-linejoin:round;stroke-width:0.5px"></path><path d="M40.52,143.36s1.57,0,3.88.09" style="fill:none;stroke:#2e353a;stroke-linecap:round;stroke-linejoin:round;stroke-width:0.5px"></path><path d="M85.13,156.22s-12,18-12.87,22.31a43.68,43.68,0,0,0-.86,7.72" style="fill:none;stroke:#2e353a;stroke-linecap:round;stroke-linejoin:round;stroke-width:0.5px"></path><path d="M90.47,161.89c2.31,3,5.08,7,6.24,10.2a70.38,70.38,0,0,1,3,12" style="fill:none;stroke:#2e353a;stroke-linecap:round;stroke-linejoin:round;stroke-width:0.5px"></path><path d="M86.84,157.51s1,1.06,2.29,2.69" style="fill:none;stroke:#2e353a;stroke-linecap:round;stroke-linejoin:round;stroke-width:0.5px"></path><path d="M74.1,137.62s-2.21-9-.84-17.35,19-25.78,19-25.78a90.2,90.2,0,0,0-1.45,16.36c0,9.52-4.75,34.56-4.75,34.56s2.81-11.52,8.93-17,25.35-14,26.39-14.73-4.27,7.29-7.74,13.49S91.44,150,91.44,150s10.46-3.82,17.88-6,24,9.16,24,9.16-12.67-1.46-20.54,1.55-19.53,6.63-19.53,6.63,10.68,2.37,15.32,5.9S119.69,182,119.69,182s-10.14-7.51-16.73-8.59-15.52-4.69-15.52-4.69a120.64,120.64,0,0,0,1.78,13.5c1.47,7.93,6,17.89,6,17.89s-11.53-6.5-14.69-11.63-4.18-17.59-4.18-17.59-5.24.06-9,5.9-6.53,21.06-6.53,21.06-6.16-13-5.93-20,14.21-19.18,14.21-19.18-11.86,1.13-17.84,3.83-11.2,10.15-11.2,10.15,0-16.9,5.78-22.1,22.19-2.2,22.19-2.2l-12.8-11.93c-3.2-3-8.06-12.7-8.06-12.7s5.34-.66,14.62,2.71A21.31,21.31,0,0,1,74.1,137.62Z" style="fill:#7E57C2"></path><path d="M59.62,131.94c-1-.83-1.94-1.63-2.94-2.41" style="fill:none;stroke:#2e353a;stroke-linecap:round;stroke-linejoin:round;stroke-width:0.5px"></path><path d="M82.89,115.23c-1.55,4.72-3.28,10.93-3.32,15.29-.08,8,.26,24.63.26,24.63A127.12,127.12,0,0,0,62,134.09" style="fill:none;stroke:#2e353a;stroke-linecap:round;stroke-linejoin:round;stroke-width:0.5px"></path><path d="M85.35,108.42s-.56,1.38-1.32,3.51" style="fill:none;stroke:#2e353a;stroke-linecap:round;stroke-linejoin:round;stroke-width:0.5px"></path><path d="M79.83,155.15s-22.75-3.73-29.07-.77S42.56,165,42.56,165" style="fill:none;stroke:#2e353a;stroke-linecap:round;stroke-linejoin:round;stroke-width:0.5px"></path><path d="M111.45,149.23c4.69-.26,5.81.69,5.81.69" style="fill:none;stroke:#2e353a;stroke-linecap:round;stroke-linejoin:round;stroke-width:0.5px"></path><path d="M59.67,188.11s-1.66-6.73,3.9-14.42S80.39,157.4,80.39,157.4s19.91-6.31,27.78-7.78" style="fill:none;stroke:#2e353a;stroke-linecap:round;stroke-linejoin:round;stroke-width:0.5px"></path><path d="M86,150.35c-3.08,3.93-5.6,7.05-5.6,7.05" style="fill:none;stroke:#2e353a;stroke-linecap:round;stroke-linejoin:round;stroke-width:0.5px"></path><path d="M106.09,126.54c-3.62,3-8.12,7-10,10.07-1.53,2.54-4.9,7-8.13,11.21" style="fill:none;stroke:#2e353a;stroke-linecap:round;stroke-linejoin:round;stroke-width:0.5px"></path><path d="M111.31,122.51s-1.27.92-3.1,2.34" style="fill:none;stroke:#2e353a;stroke-linecap:round;stroke-linejoin:round;stroke-width:0.5px"></path><path d="M82.58,159s20.27,7.62,23.46,10.61a43.42,43.42,0,0,1,5.2,5.77" style="fill:none;stroke:#2e353a;stroke-linecap:round;stroke-linejoin:round;stroke-width:0.5px"></path><path d="M81.55,166.7c-.14,3.78-.07,8.63.88,11.93A69.72,69.72,0,0,0,87,190.14" style="fill:none;stroke:#2e353a;stroke-linecap:round;stroke-linejoin:round;stroke-width:0.5px"></path><path d="M81.94,161s-.16,1.42-.28,3.52" style="fill:none;stroke:#2e353a;stroke-linecap:round;stroke-linejoin:round;stroke-width:0.5px"></path></g><g id="freepik--Device--inject-1--inject-2"><path d="M140.83,183.43H367.5a10.67,10.67,0,0,1,10.67,10.67v147a11.67,11.67,0,0,1-11.67,11.67H141.83a11.67,11.67,0,0,1-11.67-11.67v-147a10.67,10.67,0,0,1,10.67-10.67Z" style="fill:#fff;stroke:#2e353a;stroke-linecap:round;stroke-linejoin:round"></path><rect x="209.83" y="200.1" width="13.96" height="9.17" style="fill:#2e353a"></rect><rect x="165.6" y="256.67" width="12.96" height="12.86" style="fill:#2e353a"></rect><rect x="222.76" y="211.47" width="13.06" height="12.86" style="fill:#2e353a"></rect><rect x="193.66" y="200.1" width="13.96" height="9.17" style="fill:#2e353a"></rect><rect x="238.02" y="211.47" width="13.06" height="12.86" style="fill:#2e353a"></rect><rect x="225.99" y="200.1" width="13.96" height="9.17" style="fill:#2e353a"></rect><rect x="146.17" y="241.6" width="24.56" height="12.86" style="fill:#2e353a"></rect><rect x="192.23" y="211.47" width="13.06" height="12.86" style="fill:#2e353a"></rect><rect x="146.17" y="256.67" width="17.23" height="12.86" style="fill:#2e353a"></rect><rect x="242.16" y="200.1" width="13.96" height="9.17" style="fill:#2e353a"></rect><rect x="161.7" y="211.47" width="13.06" height="12.86" style="fill:#2e353a"></rect><rect x="161.33" y="200.1" width="13.96" height="9.17" style="fill:#2e353a"></rect><rect x="177.5" y="200.1" width="13.96" height="9.17" style="fill:#2e353a"></rect><rect x="176.96" y="211.47" width="13.06" height="12.86" style="fill:#2e353a"></rect><rect x="207.49" y="211.47" width="13.06" height="12.86" style="fill:#2e353a"></rect><rect x="306.83" y="200.1" width="13.96" height="9.17" style="fill:#2e353a"></rect><rect x="322.99" y="200.1" width="13.96" height="9.17" style="fill:#2e353a"></rect><rect x="314.35" y="211.47" width="13.06" height="12.86" style="fill:#2e353a"></rect><rect x="329.62" y="211.47" width="13.06" height="12.86" style="fill:#2e353a"></rect><rect x="347.6" y="256.67" width="19.23" height="12.86" style="fill:#2e353a"></rect><rect x="339.16" y="200.1" width="13.96" height="9.17" style="fill:#2e353a"></rect><rect x="146.17" y="211.47" width="13.33" height="12.86" style="fill:#2e353a"></rect><rect x="258.33" y="200.1" width="13.96" height="9.17" style="fill:#2e353a"></rect><rect x="274.49" y="200.1" width="13.96" height="9.17" style="fill:#2e353a"></rect><rect x="268.56" y="211.47" width="13.06" height="12.86" style="fill:#2e353a"></rect><rect x="299.09" y="211.47" width="13.06" height="12.86" style="fill:#2e353a"></rect><rect x="253.29" y="211.47" width="13.06" height="12.86" style="fill:#2e353a"></rect><rect x="283.82" y="211.47" width="13.06" height="12.86" style="fill:#2e353a"></rect><rect x="290.66" y="200.1" width="13.96" height="9.17" style="fill:#2e353a"></rect><rect x="271.77" y="256.67" width="12.96" height="12.86" style="fill:#2e353a"></rect><rect x="339.77" y="241.6" width="12.96" height="12.86" style="fill:#2e353a"></rect><rect x="324.6" y="241.6" width="12.96" height="12.86" style="fill:#2e353a"></rect><rect x="332.43" y="256.67" width="12.96" height="12.86" style="fill:#2e353a"></rect><rect x="317.27" y="256.67" width="12.96" height="12.86" style="fill:#2e353a"></rect><rect x="286.93" y="256.67" width="12.96" height="12.86" style="fill:#2e353a"></rect><rect x="302.1" y="256.67" width="12.96" height="12.86" style="fill:#2e353a"></rect><rect x="309.43" y="241.6" width="12.96" height="12.86" style="fill:#2e353a"></rect><rect x="294.27" y="241.6" width="12.96" height="12.86" style="fill:#2e353a"></rect><rect x="355.33" y="200.1" width="11.51" height="9.17" style="fill:#2e353a"></rect><rect x="146.17" y="200.1" width="12.96" height="9.17" style="fill:#2e353a"></rect><rect x="146.17" y="271.73" width="220.67" height="13.37" style="fill:#2e353a"></rect><rect x="344.88" y="211.47" width="21.95" height="12.86" style="fill:#2e353a"></rect><rect x="354.93" y="241.6" width="11.9" height="12.86" style="fill:#2e353a"></rect><polygon points="351.27 239.3 349.06 239.3 349.06 226.54 336.1 226.54 336.1 239.3 333.9 239.3 333.9 226.54 320.94 226.54 320.94 239.3 318.73 239.3 318.73 226.54 305.77 226.54 305.77 239.3 303.56 239.3 303.56 226.54 290.6 226.54 290.6 239.3 288.4 239.3 288.4 226.54 275.44 226.54 275.44 239.3 273.23 239.3 273.23 226.54 260.27 226.54 260.27 239.3 258.06 239.3 258.06 226.54 245.1 226.54 245.1 239.3 242.9 239.3 242.9 226.54 229.94 226.54 229.94 239.3 227.73 239.3 227.73 226.54 214.77 226.54 214.77 239.3 212.56 239.3 212.56 226.54 199.6 226.54 199.6 239.3 197.4 239.3 197.4 226.54 184.44 226.54 184.44 239.3 182.23 239.3 182.23 226.54 169.27 226.54 169.27 239.3 167.06 239.3 167.06 226.54 146.17 226.54 146.17 239.4 366.83 239.4 366.83 226.54 351.27 226.54 351.27 239.3" style="fill:#2e353a"></polygon><rect x="233.6" y="241.6" width="12.96" height="12.86" style="fill:#2e353a"></rect><rect x="279.1" y="241.6" width="12.96" height="12.86" style="fill:#2e353a"></rect><rect x="203.27" y="241.6" width="12.96" height="12.86" style="fill:#2e353a"></rect><rect x="211.1" y="256.67" width="12.96" height="12.86" style="fill:#2e353a"></rect><rect x="218.43" y="241.6" width="12.96" height="12.86" style="fill:#2e353a"></rect><rect x="188.1" y="241.6" width="12.96" height="12.86" style="fill:#2e353a"></rect><rect x="180.77" y="256.67" width="12.96" height="12.86" style="fill:#2e353a"></rect><rect x="195.93" y="256.67" width="12.96" height="12.86" style="fill:#2e353a"></rect><rect x="248.77" y="241.6" width="12.96" height="12.86" style="fill:#2e353a"></rect><rect x="256.6" y="256.67" width="12.96" height="12.86" style="fill:#2e353a"></rect><rect x="263.93" y="241.6" width="12.96" height="12.86" style="fill:#2e353a"></rect><rect x="226.27" y="256.67" width="12.96" height="12.86" style="fill:#2e353a"></rect><rect x="241.43" y="256.67" width="12.96" height="12.86" style="fill:#2e353a"></rect><rect x="172.93" y="241.6" width="12.96" height="12.86" style="fill:#2e353a"></rect><path d="M392.33,91.43H114.67a8.88,8.88,0,0,0-8.57,11.18l20.3,75.58a8.88,8.88,0,0,0,8.57,6.58h28.34V190H345v-5.2h27a8.88,8.88,0,0,0,8.57-6.58l20.3-75.58A8.88,8.88,0,0,0,392.33,91.43Z" style="fill:#2e353a;stroke:#2e353a;stroke-linecap:round;stroke-linejoin:round"></path><polygon points="360.93 178.1 146.07 178.1 124.58 100.77 382.41 100.77 360.93 178.1" style="fill:#7E57C2;stroke:#2e353a;stroke-linecap:round;stroke-linejoin:round"></polygon><path d="M160.33,144.16v1h-3.79v-1Z" style="fill:#2e353a"></path><path d="M165.05,144.16v1h-3.8v-1Z" style="fill:#2e353a"></path><path d="M169.77,144.16v1H166v-1Z" style="fill:#2e353a"></path><path d="M174.48,144.16v1h-3.79v-1Z" style="fill:#2e353a"></path><path d="M179.2,144.16v1h-3.8v-1Z" style="fill:#2e353a"></path><path d="M183.92,144.16v1h-3.8v-1Z" style="fill:#2e353a"></path><path d="M188.63,144.16v1h-3.79v-1Z" style="fill:#2e353a"></path><path d="M193.3,149.43l-4.18-11.14h1l4.18,11.14Z" style="fill:#2e353a"></path><path d="M156.51,127.94v1h-3.79v-1Z" style="fill:#2e353a"></path><path d="M161.23,127.94v1h-3.79v-1Z" style="fill:#2e353a"></path><path d="M166,127.94v1h-3.8v-1Z" style="fill:#2e353a"></path><path d="M170.67,127.94v1h-3.8v-1Z" style="fill:#2e353a"></path><path d="M175.38,127.94v1h-3.79v-1Z" style="fill:#2e353a"></path><path d="M183.36,127.94v1h-3.8v-1Z" style="fill:#2e353a"></path><path d="M188.07,127.94v1h-3.79v-1Z" style="fill:#2e353a"></path><path d="M192.79,127.94v1H189v-1Z" style="fill:#2e353a"></path><path d="M197.51,127.94v1h-3.8v-1Z" style="fill:#2e353a"></path><path d="M202.22,127.94v1h-3.79v-1Z" style="fill:#2e353a"></path><path d="M206.94,127.94v1h-3.79v-1Z" style="fill:#2e353a"></path><path d="M211.66,127.94v1h-3.8v-1Z" style="fill:#2e353a"></path><path d="M219.63,127.94v1h-3.79v-1Z" style="fill:#2e353a"></path><path d="M224.35,127.94v1h-3.8v-1Z" style="fill:#2e353a"></path><path d="M229.07,127.94v1h-3.8v-1Z" style="fill:#2e353a"></path><path d="M237,127.94v1h-3.79v-1Z" style="fill:#2e353a"></path><path d="M241.76,127.94v1H238v-1Z" style="fill:#2e353a"></path><path d="M246.48,127.94v1h-3.8v-1Z" style="fill:#2e353a"></path><path d="M264.22,127.94v1h-3.79v-1Z" style="fill:#2e353a"></path><path d="M268.94,127.94v1h-3.8v-1Z" style="fill:#2e353a"></path><path d="M273.66,127.94v1h-3.8v-1Z" style="fill:#2e353a"></path><path d="M278.37,127.94v1h-3.79v-1Z" style="fill:#2e353a"></path><path d="M283.09,127.94v1h-3.8v-1Z" style="fill:#2e353a"></path><path d="M291.06,127.94v1h-3.79v-1Z" style="fill:#2e353a"></path><path d="M295.78,127.94v1H292v-1Z" style="fill:#2e353a"></path><path d="M300.5,127.94v1h-3.8v-1Z" style="fill:#2e353a"></path><path d="M308.47,127.94v1h-3.79v-1Z" style="fill:#2e353a"></path><path d="M316.45,127.94v1h-3.8v-1Z" style="fill:#2e353a"></path></g></svg>